<svg width="189" height="26" viewBox="0 0 189 26" fill="none" xmlns="http://www.w3.org/2000/svg">
<path d="M57.4394 0.326172H48.1925C47.1047 0.326172 46.2344 1.19646 46.2344 2.28433C46.2344 3.3722 47.1047 4.24249 48.3013 4.24249H51.021H57.3306C60.0503 4.24249 61.6821 5.87429 61.6821 8.15881C61.6821 10.5521 60.0503 12.0751 57.3306 12.0751H51.021H46.3432V23.4977C46.3432 24.9119 47.3222 25.7822 48.6277 25.7822C49.9331 25.7822 50.9122 24.9119 50.9122 23.4977V16.3178C50.9122 16.209 51.021 16.1002 51.1298 16.1002H57.657C62.6612 16.1002 66.1423 12.9454 66.1423 8.2676C66.0335 3.48098 62.4436 0.326172 57.4394 0.326172Z" fill="#23154C"/>
<path d="M85.0713 14.686C87.8998 13.4894 89.6404 11.096 89.6404 7.83245C89.6404 3.3722 86.1592 0.326172 81.3726 0.326172H71.7994C70.4939 0.326172 69.7324 1.08768 69.7324 2.28433C69.7324 3.3722 70.6027 4.24249 71.7994 4.24249H74.519H81.155C83.5483 4.24249 85.0713 5.65672 85.0713 7.83245C85.0713 10.0082 83.4395 11.4224 81.155 11.4224H74.519H69.8412V23.4977C69.8412 24.9119 70.8203 25.7822 72.1257 25.7822C73.4312 25.7822 74.4102 24.9119 74.4102 23.4977V15.6651C74.4102 15.5563 74.519 15.4475 74.6278 15.4475H80.5023L85.1801 24.4768C85.7241 25.4559 86.4856 25.891 87.3559 25.891C88.6613 25.891 89.5316 24.9119 89.5316 23.8241C89.5316 23.3889 89.4228 22.845 89.2052 22.5186L85.0713 14.686Z" fill="#23154C"/>
<path d="M118.578 23.7155C117.816 23.2803 117.381 22.6276 117.381 21.8661C117.381 20.7782 118.251 19.9079 119.448 19.9079C119.992 19.9079 120.427 20.0167 120.862 20.3431C122.82 21.5397 125.213 22.1925 127.389 22.1925C130.544 22.1925 133.046 20.7782 133.046 18.6025C133.046 16.7531 131.958 15.5565 128.368 15.1213L125.866 14.9038C120.644 14.251 118.034 11.8577 118.034 7.61506C118.034 3.04603 122.059 0 127.389 0C130.218 0 133.481 0.761506 135.004 1.74059C135.766 2.17573 136.201 2.82845 136.201 3.48117C136.201 4.56904 135.331 5.43933 134.243 5.43933C133.808 5.43933 133.264 5.33054 132.829 5.11297C131.306 4.46025 129.239 3.91632 127.389 3.91632C124.67 3.91632 122.711 5.33054 122.711 7.2887C122.711 9.13807 124.017 10.2259 127.389 10.6611L129.891 10.8787C135.222 11.5314 137.724 13.9247 137.724 18.2761C137.724 22.7364 133.808 26 127.28 26C123.799 26 120.318 24.9121 118.578 23.7155Z" fill="#23154C"/>
<path d="M142.729 2.50229C142.729 1.08807 143.708 0.217773 145.013 0.217773C146.318 0.217773 147.298 1.08807 147.298 2.50229V23.4981C147.298 24.9123 146.318 25.7826 145.013 25.7826C143.708 25.7826 142.729 24.9123 142.729 23.4981V2.50229Z" fill="#23154C"/>
<path d="M156.326 24.2594C156 25.2385 155.129 25.7824 154.15 25.7824C152.954 25.7824 151.975 25.0209 151.975 23.7155C151.975 23.3891 152.083 23.1716 152.083 22.8452L159.59 2.50209C160.134 0.97908 161.004 0 162.527 0C164.05 0 164.92 0.97908 165.573 2.50209L173.079 22.8452C173.188 23.0628 173.188 23.3891 173.188 23.7155C173.188 25.0209 172.209 25.7824 171.012 25.7824C170.033 25.7824 169.272 25.2385 168.837 24.2594L162.527 6.5272H162.418L156.326 24.2594Z" fill="#23154C"/>
<path d="M16.9707 21.6484H14.5774H4.67782H2.28452C0.870293 21.6484 0 22.5187 0 23.6066C0 24.8032 0.761506 25.5648 2.06695 25.5648H2.28452H16.9707H17.1883C18.4937 25.5648 19.2552 24.8032 19.2552 23.6066C19.2552 22.5187 18.3849 21.6484 16.9707 21.6484Z" fill="#23154C"/>
<path d="M2.28452 14.7952H4.67782H12.6192H15.0126C16.4268 14.7952 17.2971 13.9249 17.2971 12.8371C17.2971 11.7492 16.4268 10.8789 15.0126 10.8789H12.6192H4.67782H2.28452C0.870293 10.8789 0 11.7492 0 12.8371C0 13.9249 0.870293 14.7952 2.28452 14.7952Z" fill="#23154C"/>
<path d="M2.28452 4.24249H4.67782H14.5774H16.9707C18.3849 4.24249 19.2552 3.3722 19.2552 2.28433C19.2552 1.08768 18.4937 0.326172 17.1883 0.326172H16.9707H2.28452H2.06695C0.761506 0.326172 0 1.08768 0 2.28433C0 3.48098 0.870293 4.24249 2.28452 4.24249Z" fill="#23154C"/>
<path d="M111.832 21.6484H109.439H99.5392H97.1459C95.7316 21.6484 94.8613 22.5187 94.8613 23.6066C94.8613 24.8032 95.6228 25.5648 96.9283 25.5648H97.1459H111.832H112.05C113.355 25.5648 114.117 24.8032 114.117 23.6066C114.225 22.5187 113.246 21.6484 111.832 21.6484Z" fill="#23154C"/>
<path d="M97.1459 14.7952H99.5392H107.481H109.874C111.288 14.7952 112.158 13.9249 112.158 12.8371C112.158 11.7492 111.288 10.8789 109.874 10.8789H107.481H99.5392H97.1459C95.7316 10.8789 94.8613 11.7492 94.8613 12.8371C94.8613 13.9249 95.7316 14.7952 97.1459 14.7952Z" fill="#23154C"/>
<path d="M97.1459 4.24249H99.5392H109.439H111.832C113.246 4.24249 114.117 3.3722 114.117 2.28433C114.117 1.08768 113.355 0.326172 112.05 0.326172H111.832H97.1459H96.9283C95.6228 0.326172 94.8613 1.08768 94.8613 2.28433C94.8613 3.48098 95.7316 4.24249 97.1459 4.24249Z" fill="#23154C"/>
<path d="M178.191 25.3473C178.083 25.2385 177.974 25.2385 177.865 25.1297C177.756 25.0209 177.539 24.9121 177.43 24.6946C177.212 24.3682 177.104 24.0418 177.104 23.6067C177.104 23.3891 177.104 23.1715 177.212 22.954C177.212 22.8452 177.212 22.8452 177.321 22.7364C177.321 22.6276 177.43 22.5188 177.43 22.41C177.43 22.3013 177.539 22.3013 177.539 22.1925L184.175 12.1841L178.191 3.15481C177.974 2.82845 177.865 2.50209 177.756 2.17573C177.756 2.06695 177.756 1.95816 177.756 1.84937C177.756 1.6318 177.756 1.41423 177.865 1.30544C177.865 1.19665 177.974 1.08787 177.974 0.979079C177.974 0.870293 178.083 0.870293 178.083 0.870293C178.409 0.32636 179.062 0 179.823 0C180.476 0 180.911 0.217573 181.346 0.543933C181.455 0.65272 181.564 0.761506 181.673 0.870293C181.673 0.870293 181.673 0.870293 181.673 0.979079L186.677 8.59414H186.786L188.417 10.9874C188.961 11.8577 188.961 12.8368 188.417 13.7071L186.786 16.1004H186.677L181.129 24.5858C180.585 25.2385 180.041 25.6736 179.279 25.6736C178.844 25.5649 178.409 25.4561 178.191 25.3473Z" fill="#F15254"/>
<path d="M39.599 25.9998C38.8375 25.9998 38.1848 25.6735 37.7497 24.9119L32.0928 16.4266L30.461 14.1421C29.917 13.2718 29.917 12.2927 30.461 11.4224L37.2057 1.52282C37.2057 1.52282 37.2057 1.52282 37.2057 1.41404C37.3145 1.30525 37.4233 1.19646 37.5321 1.08768C37.9672 0.652532 38.4024 0.543745 39.0551 0.543745C39.8166 0.543745 40.4693 0.870105 40.7957 1.41404L40.9045 1.52282C41.0133 1.63161 41.0133 1.7404 41.0133 1.84918C41.122 2.06676 41.122 2.28433 41.122 2.39312C41.122 2.5019 41.122 2.61069 41.122 2.71948C41.0133 3.04584 40.9045 3.3722 40.6869 3.69856L34.7036 12.7278L41.3396 22.6274C41.3396 22.7362 41.4484 22.7362 41.4484 22.845C41.5572 22.9538 41.5572 23.0626 41.5572 23.1714C41.5572 23.2801 41.5572 23.2801 41.666 23.3889C41.7748 23.6065 41.7748 23.8241 41.7748 24.0417C41.7748 24.4768 41.666 24.8032 41.4484 25.1295C41.3396 25.2383 41.2308 25.4559 41.0133 25.5647C40.9045 25.6735 40.7957 25.6735 40.6869 25.7822C40.3605 25.891 40.0342 25.9998 39.599 25.9998ZM28.5028 10.0082L30.6785 6.85337L27.0886 1.41404C26.5446 0.761318 26.0007 0.326172 25.2392 0.326172C23.9338 0.326172 23.0635 1.19646 23.0635 2.28433C23.0635 2.71948 23.1723 3.15462 23.4986 3.58977L28.0676 10.5521C28.2852 10.4433 28.394 10.2258 28.5028 10.0082ZM28.5028 15.4475C28.394 15.2299 28.2852 15.0124 28.1764 14.9036L22.9547 22.7362C22.6283 23.1714 22.5195 23.6065 22.5195 24.0417C22.5195 25.1295 23.3898 25.9998 24.6953 25.9998C25.4568 25.9998 26.1095 25.6735 26.5446 24.9119L30.6785 18.6023L28.5028 15.4475Z" fill="#23154C"/>
</svg>
